
        <svg xmlns="http://www.w3.org/2000/svg" xmlns:cc="http://creativecommons.org/ns#" xmlns:rdf="http://www.w3.org/1999/02/22-rdf-syntax-ns#" version="1.1" width="1821" height="671">
          <defs>
            <style type="text/css">svg{background-color:#fff}text,tspan{font:12px Arial}path{fill-opacity:0;stroke-width:2px;stroke:#000}circle{fill:#6b6659;stroke-width:2px;stroke:#000}.anchor text,.any-character text{fill:#fff}.anchor rect,.any-character rect{fill:#6b6659}.escape text,.charset-escape text,.literal text{fill:#000}.escape rect,.charset-escape rect{fill:#bada55}.literal rect{fill:#dae9e5}.charset .charset-box{fill:#cbcbba}.subexp .subexp-label tspan,.charset .charset-label tspan,.match-fragment .repeat-label tspan{font-size:10px}.subexp .subexp-label tspan,.charset .charset-label tspan{dominant-baseline:text-after-edge}.subexp .subexp-box{stroke:#908c83;stroke-dasharray:6,2;stroke-width:2px;fill-opacity:0}.quote{fill:#908c83}
      </style>
          </defs>
          <metadata>
            <rdf:rdf>
              <cc:license rdf:about="http://creativecommons.org/licenses/by/3.0/">
                <cc:permits rdf:resource="http://creativecommons.org/ns#Reproduction"></cc:permits>
                <cc:permits rdf:resource="http://creativecommons.org/ns#Distribution"></cc:permits>
                <cc:requires rdf:resource="http://creativecommons.org/ns#Notice"></cc:requires>
                <cc:requires rdf:resource="http://creativecommons.org/ns#Attribution"></cc:requires>
                <cc:permits rdf:resource="http://creativecommons.org/ns#DerivativeWorks"></cc:permits>
              </cc:license>
            </rdf:rdf>
          </metadata>
        <desc>Created with Snap</desc><g transform="matrix(1,0,0,1,15,21)" class="root"><text x="0" y="0">Flags: Ignore Case</text><g transform="matrix(1,0,0,1,10,14)" class="regexp match"><path d="M71,318.5H96M171,318.5H221M760,318.5H840M915,318.5H950M1568,318.5H1603M1678,318.5H1703"></path><g class="label anchor" transform="matrix(1,0,0,1,0,306.5)"><rect width="71" height="24"></rect><text x="0" y="0" transform="matrix(1,0,0,1,5,17)"><tspan>Start of line</tspan></text></g><g transform="matrix(1,0,0,1,1703,306.5)" class="label anchor"><rect width="68" height="24"></rect><text x="0" y="0" transform="matrix(1,0,0,1,5,17)"><tspan>End of line</tspan></text></g><g class="match-fragment" transform="matrix(1,0,0,1,81,296.5)"><path d="M0,22q10,0 10,-10v-2q0,-10 10,-10h65q10,0 10,10v2q0,10 10,10M15,22q-10,0 -10,10v2q0,10 10,10h75q10,0 10,-10v-2q0,-10 -10,-10M100,37l5,-5m-5,5l-5,-5"></path><g class="escape" transform="matrix(1,0,0,1,15,10)"><g class="label"><rect width="75" height="24" rx="3" ry="3"></rect><text x="0" y="0" transform="matrix(1,0,0,1,5,17)"><tspan>white space</tspan></text></g></g></g><g class="match-fragment subexp" transform="matrix(1,0,0,1,196,235)"><rect rx="3" ry="3" class="subexp-box" transform="matrix(1,0,0,1,0,11)" width="619" height="114"></rect><text x="0" y="0" transform="matrix(1,0,0,1,0,11)" class="subexp-label"><tspan>group #1</tspan></text><g transform="matrix(1,0,0,1,10,21)" class="regexp match"><path d="M50,62.5H85M118,62.5H158M232,62.5H287"></path><g class="match-fragment" transform="matrix(1,0,0,1,0,10)"><path d="M0,52.5q10,0 10,-10v-32.5q0,-10 10,-10h25q10,0 10,10v32.5q0,10 10,10"></path><g class="charset" transform="matrix(1,0,0,1,15,10)"><rect rx="3" ry="3" class="charset-box" transform="matrix(1,0,0,1,0,11)" width="35" height="63"></rect><text x="0" y="0" transform="matrix(1,0,0,1,0,11)" class="charset-label"><tspan>One of:</tspan></text><g transform="matrix(1,0,0,1,5,16)"><g class="literal" transform="matrix(1,0,0,1,1.5,0)"><g class="label"><rect width="22" height="24" rx="3" ry="3"></rect><text x="0" y="0" transform="matrix(1,0,0,1,5,17)"><tspan class="quote">“</tspan><tspan>-</tspan><tspan class="quote">”</tspan></text></g></g><g class="literal" transform="matrix(1,0,0,1,0,29)"><g class="label"><rect width="25" height="24" rx="3" ry="3"></rect><text x="0" y="0" transform="matrix(1,0,0,1,5,17)"><tspan class="quote">“</tspan><tspan>+</tspan><tspan class="quote">”</tspan></text></g></g></g></g></g><g class="match-fragment" transform="matrix(1,0,0,1,75,50.5)"><path d="M10,12q-10,0 -10,10v2q0,10 10,10h33q10,0 10,-10v-2q0,-10 -10,-10M53,27l5,-5m-5,5l-5,-5"></path><g class="escape" transform="matrix(1,0,0,1,10,0)"><g class="label"><rect width="33" height="24" rx="3" ry="3"></rect><text x="0" y="0" transform="matrix(1,0,0,1,5,17)"><tspan>digit</tspan></text></g></g></g><g class="match-fragment" transform="matrix(1,0,0,1,143,40.5)"><path d="M0,22q10,0 10,-10v-2q0,-10 10,-10h79q10,0 10,10v2q0,10 10,10"></path><g class="subexp regexp match" transform="matrix(1,0,0,1,15,10)"><path d="M21,12H41"></path><g class="match-fragment literal" transform="matrix(1,0,0,1,0,0)"><g class="label"><rect width="21" height="24" rx="3" ry="3"></rect><text x="0" y="0" transform="matrix(1,0,0,1,5,17)"><tspan class="quote">“</tspan><tspan>.</tspan><tspan class="quote">”</tspan></text></g></g><g class="match-fragment" transform="matrix(1,0,0,1,31,0)"><path d="M10,12q-10,0 -10,10v2q0,10 10,10h33q10,0 10,-10v-2q0,-10 -10,-10M53,27l5,-5m-5,5l-5,-5"></path><g class="escape" transform="matrix(1,0,0,1,10,0)"><g class="label"><rect width="33" height="24" rx="3" ry="3"></rect><text x="0" y="0" transform="matrix(1,0,0,1,5,17)"><tspan>digit</tspan></text></g></g></g></g></g><g class="match-fragment" transform="matrix(1,0,0,1,272,0)"><path d="M0,62.5q10,0 10,-10v-42.5q0,-10 10,-10h287q10,0 10,10v42.5q0,10 10,10"></path><g class="subexp regexp match" transform="matrix(1,0,0,1,15,10)"><path d="M25,52.5H50M85,52.5H120M153,52.5H193"></path><g class="match-fragment literal" transform="matrix(1,0,0,1,0,40.5)"><g class="label"><rect width="25" height="24" rx="3" ry="3"></rect><text x="0" y="0" transform="matrix(1,0,0,1,5,17)"><tspan class="quote">“</tspan><tspan>e</tspan><tspan class="quote">”</tspan></text></g></g><g class="match-fragment" transform="matrix(1,0,0,1,35,0)"><path d="M0,52.5q10,0 10,-10v-32.5q0,-10 10,-10h25q10,0 10,10v32.5q0,10 10,10"></path><g class="charset" transform="matrix(1,0,0,1,15,10)"><rect rx="3" ry="3" class="charset-box" transform="matrix(1,0,0,1,0,11)" width="35" height="63"></rect><text x="0" y="0" transform="matrix(1,0,0,1,0,11)" class="charset-label"><tspan>One of:</tspan></text><g transform="matrix(1,0,0,1,5,16)"><g class="literal" transform="matrix(1,0,0,1,0,0)"><g class="label"><rect width="25" height="24" rx="3" ry="3"></rect><text x="0" y="0" transform="matrix(1,0,0,1,5,17)"><tspan class="quote">“</tspan><tspan>+</tspan><tspan class="quote">”</tspan></text></g></g><g class="literal" transform="matrix(1,0,0,1,1.5,29)"><g class="label"><rect width="22" height="24" rx="3" ry="3"></rect><text x="0" y="0" transform="matrix(1,0,0,1,5,17)"><tspan class="quote">“</tspan><tspan>-</tspan><tspan class="quote">”</tspan></text></g></g></g></g></g><g class="match-fragment" transform="matrix(1,0,0,1,110,40.5)"><path d="M10,12q-10,0 -10,10v2q0,10 10,10h33q10,0 10,-10v-2q0,-10 -10,-10M53,27l5,-5m-5,5l-5,-5"></path><g class="escape" transform="matrix(1,0,0,1,10,0)"><g class="label"><rect width="33" height="24" rx="3" ry="3"></rect><text x="0" y="0" transform="matrix(1,0,0,1,5,17)"><tspan>digit</tspan></text></g></g></g><g class="match-fragment" transform="matrix(1,0,0,1,178,30.5)"><path d="M0,22q10,0 10,-10v-2q0,-10 10,-10h79q10,0 10,10v2q0,10 10,10"></path><g class="subexp regexp match" transform="matrix(1,0,0,1,15,10)"><path d="M21,12H41"></path><g class="match-fragment literal" transform="matrix(1,0,0,1,0,0)"><g class="label"><rect width="21" height="24" rx="3" ry="3"></rect><text x="0" y="0" transform="matrix(1,0,0,1,5,17)"><tspan class="quote">“</tspan><tspan>.</tspan><tspan class="quote">”</tspan></text></g></g><g class="match-fragment" transform="matrix(1,0,0,1,31,0)"><path d="M10,12q-10,0 -10,10v2q0,10 10,10h33q10,0 10,-10v-2q0,-10 -10,-10M53,27l5,-5m-5,5l-5,-5"></path><g transform="matrix(1,0,0,1,10,0)" class="escape"><g class="label"><rect width="33" height="24" rx="3" ry="3"></rect><text x="0" y="0" transform="matrix(1,0,0,1,5,17)"><tspan>digit</tspan></text></g></g></g></g></g></g></g></g></g><g class="match-fragment" transform="matrix(1,0,0,1,825,296.5)"><path d="M0,22q10,0 10,-10v-2q0,-10 10,-10h65q10,0 10,10v2q0,10 10,10M15,22q-10,0 -10,10v2q0,10 10,10h75q10,0 10,-10v-2q0,-10 -10,-10M100,37l5,-5m-5,5l-5,-5"></path><g class="escape" transform="matrix(1,0,0,1,15,10)"><g class="label"><rect width="75" height="24" rx="3" ry="3"></rect><text x="0" y="0" transform="matrix(1,0,0,1,5,17)"><tspan>white space</tspan></text></g></g></g><g class="match-fragment subexp" transform="matrix(1,0,0,1,940,0)"><rect rx="3" ry="3" class="subexp-box" transform="matrix(1,0,0,1,0,11)" width="638" height="615"></rect><text x="0" y="0" transform="matrix(1,0,0,1,0,11)" class="subexp-label"><tspan>group #2</tspan></text><g transform="matrix(1,0,0,1,10,21)" class="regexp"><path d="M10,221.5q0,-10 10,-10M608,221.5q0,-10 -10,-10M10,533q0,10 10,10M608,533q0,10 -10,10M0,297.5q10,0 10,-10V221.5M618,297.5q-10,0 -10,-10V221.5M0,297.5q10,0 10,10V533M618,297.5q-10,0 -10,10V533"></path><g transform="matrix(1,0,0,1,20,0)" class="regexp-matches"><path d="M0,211.5h15M568,211.5H578M0,543h147M356,543H578"></path><g class="match" transform="matrix(1,0,0,1,0,0)"><path d="M37,211.5H72"></path><g class="match-fragment" transform="matrix(1,0,0,1,0,189.5)"><path d="M0,22q10,0 10,-10v-2q0,-10 10,-10h12q10,0 10,10v2q0,10 10,10"></path><g transform="matrix(1,0,0,1,15,10)" class="literal"><g class="label"><rect width="22" height="24" rx="3" ry="3"></rect><text x="0" y="0" transform="matrix(1,0,0,1,5,17)"><tspan class="quote">“</tspan><tspan>º</tspan><tspan class="quote">”</tspan></text></g></g></g><g class="match-fragment subexp" transform="matrix(1,0,0,1,62,0)"><rect rx="3" ry="3" class="subexp-box" transform="matrix(1,0,0,1,0,11)" width="516" height="401"></rect><text x="0" y="0" transform="matrix(1,0,0,1,0,11)" class="subexp-label"><tspan>group #3</tspan></text><g transform="matrix(1,0,0,1,10,21)" class="regexp"><path d="M10,177q0,-10 10,-10M486,177q0,-10 -10,-10M10,329q0,10 10,10M486,329q0,10 -10,10M0,190.5q10,0 10,-10V177M496,190.5q-10,0 -10,-10V177M0,190.5q10,0 10,10V329M496,190.5q-10,0 -10,10V329"></path><g transform="matrix(1,0,0,1,20,0)" class="regexp-matches"><path d="M0,167h0M331,167H456M0,339h83M298,339H456"></path><g transform="matrix(1,0,0,1,0,0)" class="match"><path d="M21,167H56"></path><g class="match-fragment literal" transform="matrix(1,0,0,1,0,155)"><g class="label"><rect width="21" height="24" rx="3" ry="3"></rect><text x="0" y="0" transform="matrix(1,0,0,1,5,17)"><tspan class="quote">“</tspan><tspan>f</tspan><tspan class="quote">”</tspan></text></g></g><g class="match-fragment" transform="matrix(1,0,0,1,31,0)"><path d="M0,167q10,0 10,-10v-147q0,-10 10,-10h385q10,0 10,10v147q0,10 10,10"></path><g class="subexp" transform="matrix(1,0,0,1,15,10)"><rect rx="3" ry="3" class="subexp-box" transform="matrix(1,0,0,1,0,11)" width="395" height="208"></rect><text x="0" y="0" transform="matrix(1,0,0,1,0,11)" class="subexp-label"><tspan>group #4</tspan></text><g transform="matrix(1,0,0,1,10,21)" class="regexp match"><path d="M25,136H60"></path><g class="match-fragment literal" transform="matrix(1,0,0,1,0,124)"><g class="label"><rect width="25" height="24" rx="3" ry="3"></rect><text x="0" y="0" transform="matrix(1,0,0,1,5,17)"><tspan class="quote">“</tspan><tspan>a</tspan><tspan class="quote">”</tspan></text></g></g><g class="match-fragment" transform="matrix(1,0,0,1,35,0)"><path d="M0,136q10,0 10,-10v-116q0,-10 10,-10h300q10,0 10,10v116q0,10 10,10"></path><g class="subexp" transform="matrix(1,0,0,1,15,10)"><rect rx="3" ry="3" class="subexp-box" transform="matrix(1,0,0,1,0,11)" width="310" height="167"></rect><text x="0" y="0" transform="matrix(1,0,0,1,0,11)" class="subexp-label"><tspan>group #5</tspan></text><g transform="matrix(1,0,0,1,10,21)" class="regexp match"><path d="M22,105H57"></path><g class="match-fragment literal" transform="matrix(1,0,0,1,0,93)"><g class="label"><rect width="22" height="24" rx="3" ry="3"></rect><text x="0" y="0" transform="matrix(1,0,0,1,5,17)"><tspan class="quote">“</tspan><tspan>r</tspan><tspan class="quote">”</tspan></text></g></g><g class="match-fragment" transform="matrix(1,0,0,1,32,0)"><path d="M0,105q10,0 10,-10v-85q0,-10 10,-10h218q10,0 10,10v85q0,10 10,10"></path><g class="subexp" transform="matrix(1,0,0,1,15,10)"><rect rx="3" ry="3" class="subexp-box" transform="matrix(1,0,0,1,0,11)" width="228" height="126"></rect><text x="0" y="0" transform="matrix(1,0,0,1,0,11)" class="subexp-label"><tspan>group #6</tspan></text><g class="regexp match" transform="matrix(1,0,0,1,10,21)"><path d="M25,74H60"></path><g class="match-fragment literal" transform="matrix(1,0,0,1,0,62)"><g class="label"><rect width="25" height="24" rx="3" ry="3"></rect><text x="0" y="0" transform="matrix(1,0,0,1,5,17)"><tspan class="quote">“</tspan><tspan>e</tspan><tspan class="quote">”</tspan></text></g></g><g class="match-fragment" transform="matrix(1,0,0,1,35,0)"><path d="M0,74q10,0 10,-10v-54q0,-10 10,-10h133q10,0 10,10v54q0,10 10,10"></path><g transform="matrix(1,0,0,1,15,10)" class="subexp"><rect rx="3" ry="3" class="subexp-box" transform="matrix(1,0,0,1,0,11)" width="143" height="85"></rect><text x="0" y="0" transform="matrix(1,0,0,1,0,11)" class="subexp-label"><tspan>group #7</tspan></text><g transform="matrix(1,0,0,1,10,21)" class="regexp match"><path d="M25,43H60"></path><g class="match-fragment literal" transform="matrix(1,0,0,1,0,31)"><g class="label"><rect width="25" height="24" rx="3" ry="3"></rect><text x="0" y="0" transform="matrix(1,0,0,1,5,17)"><tspan class="quote">“</tspan><tspan>n</tspan><tspan class="quote">”</tspan></text></g></g><g class="match-fragment" transform="matrix(1,0,0,1,35,0)"><path d="M0,43q10,0 10,-10v-23q0,-10 10,-10h48q10,0 10,10v23q0,10 10,10"></path><g transform="matrix(1,0,0,1,15,10)" class="subexp"><rect rx="3" ry="3" class="subexp-box" transform="matrix(1,0,0,1,0,11)" width="58" height="44"></rect><text x="0" y="0" transform="matrix(1,0,0,1,0,11)" class="subexp-label"><tspan>group #8</tspan></text><g transform="matrix(1,0,0,1,10,21)" class="regexp match match-fragment literal"><g class="label"><rect width="38" height="24" rx="3" ry="3"></rect><text x="0" y="0" transform="matrix(1,0,0,1,5,17)"><tspan class="quote">“</tspan><tspan>heit</tspan><tspan class="quote">”</tspan></text></g></g></g></g></g></g></g></g></g></g></g></g></g></g></g></g></g><g transform="matrix(1,0,0,1,83,234)" class="match"><path d="M24,105H59"></path><g class="match-fragment literal" transform="matrix(1,0,0,1,0,93)"><g class="label"><rect width="24" height="24" rx="3" ry="3"></rect><text x="0" y="0" transform="matrix(1,0,0,1,5,17)"><tspan class="quote">“</tspan><tspan>c</tspan><tspan class="quote">”</tspan></text></g></g><g class="match-fragment" transform="matrix(1,0,0,1,34,0)"><path d="M0,105q10,0 10,-10v-85q0,-10 10,-10h216q10,0 10,10v85q0,10 10,10"></path><g class="subexp" transform="matrix(1,0,0,1,15,10)"><rect rx="3" ry="3" class="subexp-box" transform="matrix(1,0,0,1,0,11)" width="226" height="126"></rect><text x="0" y="0" transform="matrix(1,0,0,1,0,11)" class="subexp-label"><tspan>group #9</tspan></text><g transform="matrix(1,0,0,1,10,21)" class="regexp match"><path d="M25,74H60"></path><g class="match-fragment literal" transform="matrix(1,0,0,1,0,62)"><g class="label"><rect width="25" height="24" rx="3" ry="3"></rect><text x="0" y="0" transform="matrix(1,0,0,1,5,17)"><tspan class="quote">“</tspan><tspan>e</tspan><tspan class="quote">”</tspan></text></g></g><g class="match-fragment" transform="matrix(1,0,0,1,35,0)"><path d="M0,74q10,0 10,-10v-54q0,-10 10,-10h131q10,0 10,10v54q0,10 10,10"></path><g class="subexp" transform="matrix(1,0,0,1,15,10)"><rect rx="3" ry="3" class="subexp-box" transform="matrix(1,0,0,1,0,11)" width="141" height="85"></rect><text x="0" y="0" transform="matrix(1,0,0,1,0,11)" class="subexp-label"><tspan>group #10</tspan></text><g transform="matrix(1,0,0,1,10,21)" class="regexp match"><path d="M21,43H56"></path><g class="match-fragment literal" transform="matrix(1,0,0,1,0,31)"><g class="label"><rect width="21" height="24" rx="3" ry="3"></rect><text x="0" y="0" transform="matrix(1,0,0,1,5,17)"><tspan class="quote">“</tspan><tspan>l</tspan><tspan class="quote">”</tspan></text></g></g><g class="match-fragment" transform="matrix(1,0,0,1,31,0)"><path d="M0,43q10,0 10,-10v-23q0,-10 10,-10h50q10,0 10,10v23q0,10 10,10"></path><g class="subexp" transform="matrix(1,0,0,1,15,10)"><rect rx="3" ry="3" class="subexp-box" transform="matrix(1,0,0,1,0,11)" width="60" height="44"></rect><text x="0" y="0" transform="matrix(1,0,0,1,0,11)" class="subexp-label"><tspan>group #11</tspan></text><g class="regexp match match-fragment literal" transform="matrix(1,0,0,1,10,21)"><g class="label"><rect width="40" height="24" rx="3" ry="3"></rect><text x="0" y="0" transform="matrix(1,0,0,1,5,17)"><tspan class="quote">“</tspan><tspan>sius</tspan><tspan class="quote">”</tspan></text></g></g></g></g></g></g></g></g></g></g></g></g></g></g></g><g class="match match-fragment subexp" transform="matrix(1,0,0,1,137,417)"><rect rx="3" ry="3" class="subexp-box" transform="matrix(1,0,0,1,0,11)" width="304" height="167"></rect><text x="0" y="0" transform="matrix(1,0,0,1,0,11)" class="subexp-label"><tspan>group #12</tspan></text><g transform="matrix(1,0,0,1,10,21)" class="regexp match"><path d="M24,105H59"></path><g class="match-fragment literal" transform="matrix(1,0,0,1,0,93)"><g class="label"><rect width="24" height="24" rx="3" ry="3"></rect><text x="0" y="0" transform="matrix(1,0,0,1,5,17)"><tspan class="quote">“</tspan><tspan>k</tspan><tspan class="quote">”</tspan></text></g></g><g class="match-fragment" transform="matrix(1,0,0,1,34,0)"><path d="M0,105q10,0 10,-10v-85q0,-10 10,-10h210q10,0 10,10v85q0,10 10,10"></path><g transform="matrix(1,0,0,1,15,10)" class="subexp"><rect rx="3" ry="3" class="subexp-box" transform="matrix(1,0,0,1,0,11)" width="220" height="126"></rect><text x="0" y="0" transform="matrix(1,0,0,1,0,11)" class="subexp-label"><tspan>group #13</tspan></text><g transform="matrix(1,0,0,1,10,21)" class="regexp match"><path d="M25,74H60"></path><g class="match-fragment literal" transform="matrix(1,0,0,1,0,62)"><g class="label"><rect width="25" height="24" rx="3" ry="3"></rect><text x="0" y="0" transform="matrix(1,0,0,1,5,17)"><tspan class="quote">“</tspan><tspan>e</tspan><tspan class="quote">”</tspan></text></g></g><g class="match-fragment" transform="matrix(1,0,0,1,35,0)"><path d="M0,74q10,0 10,-10v-54q0,-10 10,-10h125q10,0 10,10v54q0,10 10,10"></path><g transform="matrix(1,0,0,1,15,10)" class="subexp"><rect rx="3" ry="3" class="subexp-box" transform="matrix(1,0,0,1,0,11)" width="135" height="85"></rect><text x="0" y="0" transform="matrix(1,0,0,1,0,11)" class="subexp-label"><tspan>group #14</tspan></text><g transform="matrix(1,0,0,1,10,21)" class="regexp match"><path d="M21,43H56"></path><g class="match-fragment literal" transform="matrix(1,0,0,1,0,31)"><g class="label"><rect width="21" height="24" rx="3" ry="3"></rect><text x="0" y="0" transform="matrix(1,0,0,1,5,17)"><tspan class="quote">“</tspan><tspan>l</tspan><tspan class="quote">”</tspan></text></g></g><g class="match-fragment" transform="matrix(1,0,0,1,31,0)"><path d="M0,43q10,0 10,-10v-23q0,-10 10,-10h44q10,0 10,10v23q0,10 10,10"></path><g transform="matrix(1,0,0,1,15,10)" class="subexp"><rect rx="3" ry="3" class="subexp-box" transform="matrix(1,0,0,1,0,11)" width="54" height="44"></rect><text x="0" y="0" transform="matrix(1,0,0,1,0,11)" class="subexp-label"><tspan>group #15</tspan></text><g transform="matrix(1,0,0,1,10,21)" class="regexp match match-fragment literal"><g class="label"><rect width="34" height="24" rx="3" ry="3"></rect><text x="0" y="0" transform="matrix(1,0,0,1,5,17)"><tspan class="quote">“</tspan><tspan>vin</tspan><tspan class="quote">”</tspan></text></g></g></g></g></g></g></g></g></g></g></g></g></g></g></g><g class="match-fragment" transform="matrix(1,0,0,1,1588,296.5)"><path d="M0,22q10,0 10,-10v-2q0,-10 10,-10h65q10,0 10,10v2q0,10 10,10M15,22q-10,0 -10,10v2q0,10 10,10h75q10,0 10,-10v-2q0,-10 -10,-10M100,37l5,-5m-5,5l-5,-5"></path><g class="escape" transform="matrix(1,0,0,1,15,10)"><g class="label"><rect width="75" height="24" rx="3" ry="3"></rect><text x="0" y="0" transform="matrix(1,0,0,1,5,17)"><tspan>white space</tspan></text></g></g></g></g><path d="M10,332.5H0M1781,332.5H1791"></path><circle cx="0" cy="332.5" r="5"></circle><circle cx="1791" cy="332.5" r="5"></circle></g></svg>
      